HIERARCHY
ROOT Hips
{
	OFFSET 0.000000 97.167313 0.000000
	CHANNELS 6 Xposition Yposition Zposition Xrotation Yrotation Zrotation
	JOINT Spine
	{
		OFFSET 0.000000 13.784798 0.064400
		CHANNELS 3 Xrotation Yrotation Zrotation
		JOINT Spine1
		{
			OFFSET 0.000000 12.037903 0.404700
			CHANNELS 3 Xrotation Yrotation Zrotation
			JOINT Spine2
			{
				OFFSET 0.000000 17.795601 0.420200
				CHANNELS 3 Xrotation Yrotation Zrotation
				JOINT Neck
				{
					OFFSET 0.000000 39.131302 11.954600
					CHANNELS 3 Xrotation Yrotation Zrotation
					JOINT Head
					{
						OFFSET 0.000000 14.456192 15.627699
						CHANNELS 3 Xrotation Yrotation Zrotation
						JOINT HeadTop_End
						{
							OFFSET 0.000000 15.703506 7.603401
							CHANNELS 3 Xrotation Yrotation Zrotation
							End Site
							{
								OFFSET 0.000000 17.447403 0.000000
							}
						}
					}
				}
				JOINT LeftShoulder
				{
					OFFSET 17.399500 24.608795 1.168800
					CHANNELS 3 Xrotation Yrotation Zrotation
					JOINT LeftArm
					{
						OFFSET 18.980635 5.765305 1.818600
						CHANNELS 3 Xrotation Yrotation Zrotation
						JOINT LeftForeArm
						{
							OFFSET 49.290169 0.000000 0.000000
							CHANNELS 3 Xrotation Yrotation Zrotation
							JOINT LeftHand
							{
								OFFSET 31.562012 0.000000 0.000000
								CHANNELS 3 Xrotation Yrotation Zrotation
								JOINT LeftHandThumb1
								{
									OFFSET 6.133995 -4.388519 7.076070
									CHANNELS 3 Xrotation Yrotation Zrotation
									JOINT LeftHandThumb2
									{
										OFFSET 6.037666 -3.485840 3.485847
										CHANNELS 3 Xrotation Yrotation Zrotation
										JOINT LeftHandThumb3
										{
											OFFSET 6.496506 -3.750763 3.750761
											CHANNELS 3 Xrotation Yrotation Zrotation
											JOINT LeftHandThumb4
											{
												OFFSET 5.616882 -3.242905 3.242910
												CHANNELS 3 Xrotation Yrotation Zrotation
												End Site
												{
													OFFSET -1.254608 7.132141 0.375429
												}
											}
										}
									}
								}
								JOINT LeftHandPinky1
								{
									OFFSET 18.920792 -0.453171 -11.426712
									CHANNELS 3 Xrotation Yrotation Zrotation
									JOINT LeftHandPinky2
									{
										OFFSET 4.919586 0.000000 0.000000
										CHANNELS 3 Xrotation Yrotation Zrotation
										JOINT LeftHandPinky3
										{
											OFFSET 5.233047 0.000000 0.000000
											CHANNELS 3 Xrotation Yrotation Zrotation
											JOINT LeftHandPinky4
											{
												OFFSET 5.571716 0.000000 0.000000
												CHANNELS 3 Xrotation Yrotation Zrotation
												End Site
												{
													OFFSET -3.459808 4.342407 -0.466164
												}
											}
										}
									}
								}
								JOINT LeftHandRing1
								{
									OFFSET 22.726120 -0.094986 -6.500475
									CHANNELS 3 Xrotation Yrotation Zrotation
									JOINT LeftHandRing2
									{
										OFFSET 6.408615 0.000000 0.000000
										CHANNELS 3 Xrotation Yrotation Zrotation
										JOINT LeftHandRing3
										{
											OFFSET 6.150223 0.000000 0.000000
											CHANNELS 3 Xrotation Yrotation Zrotation
											JOINT LeftHandRing4
											{
												OFFSET 6.145386 0.000000 0.000000
												CHANNELS 3 Xrotation Yrotation Zrotation
												End Site
												{
													OFFSET -3.671402 4.923981 -0.202372
												}
											}
										}
									}
								}
								JOINT LeftHandMiddle1
								{
									OFFSET 23.373947 0.000000 0.000001
									CHANNELS 3 Xrotation Yrotation Zrotation
									JOINT LeftHandMiddle2
									{
										OFFSET 6.996567 0.000000 0.000000
										CHANNELS 3 Xrotation Yrotation Zrotation
										JOINT LeftHandMiddle3
										{
											OFFSET 7.015945 0.000000 0.000000
											CHANNELS 3 Xrotation Yrotation Zrotation
											JOINT LeftHandMiddle4
											{
												OFFSET 7.721573 0.000000 0.000000
												CHANNELS 3 Xrotation Yrotation Zrotation
												End Site
												{
													OFFSET -4.651108 6.158463 0.251582
												}
											}
										}
									}
								}
								JOINT LeftHandIndex1
								{
									OFFSET 21.310577 -0.490082 6.209344
									CHANNELS 3 Xrotation Yrotation Zrotation
									JOINT LeftHandIndex2
									{
										OFFSET 7.536453 0.000000 0.000000
										CHANNELS 3 Xrotation Yrotation Zrotation
										JOINT LeftHandIndex3
										{
											OFFSET 7.512344 0.000000 0.000000
											CHANNELS 3 Xrotation Yrotation Zrotation
											JOINT LeftHandIndex4
											{
												OFFSET 10.212402 0.000000 0.000001
												CHANNELS 3 Xrotation Yrotation Zrotation
												End Site
												{
													OFFSET -5.180801 8.690506 1.388433
												}
											}
										}
									}
								}
							}
						}
					}
				}
				JOINT RightShoulder
				{
					OFFSET -17.399500 24.608795 1.168800
					CHANNELS 3 Xrotation Yrotation Zrotation
					JOINT RightArm
					{
						OFFSET -18.980635 5.765305 1.818600
						CHANNELS 3 Xrotation Yrotation Zrotation
						JOINT RightForeArm
						{
							OFFSET -49.290169 0.000000 0.000000
							CHANNELS 3 Xrotation Yrotation Zrotation
							JOINT RightHand
							{
								OFFSET -31.562012 0.000000 0.000000
								CHANNELS 3 Xrotation Yrotation Zrotation
								JOINT RightHandThumb1
								{
									OFFSET -6.133995 -4.388519 7.076070
									CHANNELS 3 Xrotation Yrotation Zrotation
									JOINT RightHandThumb2
									{
										OFFSET -6.037666 -3.485840 3.485847
										CHANNELS 3 Xrotation Yrotation Zrotation
										JOINT RightHandThumb3
										{
											OFFSET -6.496506 -3.750763 3.750761
											CHANNELS 3 Xrotation Yrotation Zrotation
											JOINT RightHandThumb4
											{
												OFFSET -5.616882 -3.242905 3.242910
												CHANNELS 3 Xrotation Yrotation Zrotation
												End Site
												{
													OFFSET 1.254608 7.132141 0.375429
												}
											}
										}
									}
								}
								JOINT RightHandIndex1
								{
									OFFSET -21.310577 -0.490082 6.209344
									CHANNELS 3 Xrotation Yrotation Zrotation
									JOINT RightHandIndex2
									{
										OFFSET -7.536453 0.000000 0.000000
										CHANNELS 3 Xrotation Yrotation Zrotation
										JOINT RightHandIndex3
										{
											OFFSET -7.512344 0.000000 0.000000
											CHANNELS 3 Xrotation Yrotation Zrotation
											JOINT RightHandIndex4
											{
												OFFSET -10.212402 0.000000 0.000001
												CHANNELS 3 Xrotation Yrotation Zrotation
												End Site
												{
													OFFSET 5.180801 8.690506 1.388433
												}
											}
										}
									}
								}
								JOINT RightHandMiddle1
								{
									OFFSET -23.373947 0.000000 0.000001
									CHANNELS 3 Xrotation Yrotation Zrotation
									JOINT RightHandMiddle2
									{
										OFFSET -6.996567 0.000000 0.000000
										CHANNELS 3 Xrotation Yrotation Zrotation
										JOINT RightHandMiddle3
										{
											OFFSET -7.015945 0.000000 0.000000
											CHANNELS 3 Xrotation Yrotation Zrotation
											JOINT RightHandMiddle4
											{
												OFFSET -7.721573 0.000000 0.000000
												CHANNELS 3 Xrotation Yrotation Zrotation
												End Site
												{
													OFFSET 4.651108 6.158463 0.251582
												}
											}
										}
									}
								}
								JOINT RightHandRing1
								{
									OFFSET -22.726120 -0.094986 -6.500475
									CHANNELS 3 Xrotation Yrotation Zrotation
									JOINT RightHandRing2
									{
										OFFSET -6.408615 0.000000 0.000000
										CHANNELS 3 Xrotation Yrotation Zrotation
										JOINT RightHandRing3
										{
											OFFSET -6.150223 0.000000 0.000000
											CHANNELS 3 Xrotation Yrotation Zrotation
											JOINT RightHandRing4
											{
												OFFSET -6.145386 0.000000 0.000000
												CHANNELS 3 Xrotation Yrotation Zrotation
												End Site
												{
													OFFSET 3.671402 4.923981 -0.202372
												}
											}
										}
									}
								}
								JOINT RightHandPinky1
								{
									OFFSET -18.920792 -0.453171 -11.426712
									CHANNELS 3 Xrotation Yrotation Zrotation
									JOINT RightHandPinky2
									{
										OFFSET -4.919586 0.000000 0.000000
										CHANNELS 3 Xrotation Yrotation Zrotation
										JOINT RightHandPinky3
										{
											OFFSET -5.233047 0.000000 0.000000
											CHANNELS 3 Xrotation Yrotation Zrotation
											JOINT RightHandPinky4
											{
												OFFSET -5.571716 0.000000 0.000000
												CHANNELS 3 Xrotation Yrotation Zrotation
												End Site
												{
													OFFSET 3.459808 4.342407 -0.466164
												}
											}
										}
									}
								}
							}
						}
					}
				}
			}
		}
	}
	JOINT LeftUpLeg
	{
		OFFSET 19.899099 -7.885101 -3.429500
		CHANNELS 3 Xrotation Yrotation Zrotation
		JOINT LeftLeg
		{
			OFFSET 1.745560 -36.997807 10.304700
			CHANNELS 3 Xrotation Yrotation Zrotation
			JOINT LeftFoot
			{
				OFFSET -1.745558 -29.803308 -13.615400
				CHANNELS 3 Xrotation Yrotation Zrotation
				JOINT LeftToeBase
				{
					OFFSET 1.181900 -18.539904 15.226099
					CHANNELS 3 Xrotation Yrotation Zrotation
					JOINT LeftToe_End
					{
						OFFSET -0.863701 1.402801 16.534700
						CHANNELS 3 Xrotation Yrotation Zrotation
						End Site
						{
							OFFSET 0.000000 16.616566 0.000000
						}
					}
				}
			}
		}
	}
	JOINT RightUpLeg
	{
		OFFSET -19.899099 -7.885101 -3.429500
		CHANNELS 3 Xrotation Yrotation Zrotation
		JOINT RightLeg
		{
			OFFSET -1.745560 -36.997807 10.304700
			CHANNELS 3 Xrotation Yrotation Zrotation
			JOINT RightFoot
			{
				OFFSET 1.745558 -29.803308 -13.615400
				CHANNELS 3 Xrotation Yrotation Zrotation
				JOINT RightToeBase
				{
					OFFSET -1.181900 -18.539904 15.226099
					CHANNELS 3 Xrotation Yrotation Zrotation
					JOINT RightToe_End
					{
						OFFSET 0.863701 1.402801 16.534700
						CHANNELS 3 Xrotation Yrotation Zrotation
						End Site
						{
							OFFSET 0.000000 16.616566 0.000000
						}
					}
				}
			}
		}
	}
}
MOTION
Frames: 4
Frame Time: 0.033333
-12.909033 75.897476 9.320630 -0.027256 -52.687506 0.508871 16.421182 -0.794989 1.161766 4.865146 -0.748483 0.541077 8.404788 -0.778563 0.527104 -0.968181 4.307464 -1.970893 0.046629 24.285219 -0.554672 -0.000001 0.000001 -0.000000 -6.353555 -19.941647 -1.266621 -39.525635 25.311879 -53.727996 -84.204471 4.401597 -94.392832 -38.511940 -2.744298 12.919705 0.699117 9.503378 -2.418113 5.975209 12.647536 1.348338 -23.873536 -17.664254 1.604923 0.000003 0.000003 0.000000 -7.938257 1.609100 -6.495660 2.210554 4.583620 -51.475212 0.883842 3.096042 -31.858120 0.000000 0.000002 0.000001 1.254228 -0.073719 -17.945777 3.754118 5.463593 -68.965308 5.298517 9.638350 -33.747049 -0.000001 -0.000002 0.000007 10.058161 -1.800611 -20.644720 1.774240 4.200488 -45.782143 1.632183 4.057794 -43.809417 -0.000000 -0.000001 0.000004 9.479702 -1.289807 -20.785550 0.709470 2.796457 -28.467112 0.714013 2.804764 -28.559765 0.000001 0.000003 0.000002 -17.811180 19.119453 3.644142 -8.575119 37.157414 58.514272 -99.248550 50.315299 101.062860 3.514338 6.518119 2.159789 13.942498 -4.273663 -5.300348 7.113207 -20.767513 -2.619476 -3.463343 -24.899745 -18.660480 -0.000001 -0.000000 -0.000003 0.357752 -5.832705 5.175845 0.094396 -0.933610 11.539843 0.777650 -2.578457 33.559943 -0.000001 -0.000001 0.000001 3.764082 -12.080515 1.143786 5.714277 -4.535867 103.133500 3.160499 -4.410637 71.234973 0.000001 0.000000 -0.000001 -12.155610 -12.623898 9.228375 6.566876 -4.248442 114.232264 3.755140 -4.569193 78.819700 0.000001 -0.000000 -0.000003 -17.635777 -10.496857 3.325477 4.993657 -4.645001 94.147942 3.647330 -4.546594 77.463416 0.000002 -0.000000 0.000002 -75.560942 9.009014 46.864677 118.502566 -23.855341 -1.206887 39.372182 15.228241 -3.807345 3.363269 0.241377 -1.210065 -0.000000 -0.000000 0.000001 -95.845306 4.649831 -15.235154 133.032797 14.036864 -4.894938 40.957865 -6.648292 12.664435 0.466998 3.752255 1.977852 0.000000 0.000000 -0.000001 
-12.822843 75.745773 9.279612 -0.072849 -52.662937 0.559444 15.182566 -0.905493 1.084836 4.845273 -0.935712 0.564479 8.384458 -0.961440 0.573894 -1.033024 4.311216 -1.970743 -0.114363 24.357131 -0.606036 0.000001 0.000002 -0.000000 -5.007994 -20.774174 -1.036679 -41.428004 25.652833 -52.217254 -84.226095 4.508120 -94.375845 -38.362625 -3.240434 13.545171 0.699117 9.503378 -2.418112 5.975207 12.647536 1.348339 -23.873535 -17.664254 1.604922 0.000003 -0.000000 -0.000001 -7.938258 1.609098 -6.495662 2.210557 4.583623 -51.475208 0.883846 3.096041 -31.858120 -0.000001 0.000000 -0.000002 1.254231 -0.073722 -17.945781 3.754120 5.463593 -68.965308 5.298517 9.638346 -33.747053 -0.000001 0.000002 0.000000 10.058160 -1.800617 -20.644720 1.774240 4.200486 -45.782143 1.632184 4.057795 -43.809414 0.000001 -0.000002 0.000004 9.479702 -1.289805 -20.785551 0.709469 2.796459 -28.467115 0.714015 2.804769 -28.559767 0.000002 0.000001 -0.000001 -15.438212 18.295975 2.897481 -12.548461 37.933897 60.289383 -97.271292 50.619563 98.401757 2.919345 6.604876 3.568478 13.942499 -4.273665 -5.300350 7.113207 -20.767513 -2.619477 -3.463342 -24.899750 -18.660478 -0.000002 -0.000001 -0.000004 0.357752 -5.832704 5.175844 0.094396 -0.933612 11.539842 0.777649 -2.578456 33.559943 0.000000 0.000000 0.000002 3.764084 -12.080512 1.143784 5.714280 -4.535869 103.133500 3.160499 -4.410635 71.234973 -0.000000 -0.000001 -0.000006 -12.155606 -12.623898 9.228372 6.566881 -4.248443 114.232264 3.755139 -4.569194 78.819700 0.000000 0.000001 -0.000003 -17.635776 -10.496854 3.325481 4.993667 -4.645001 94.147942 3.647330 -4.546594 77.463409 0.000002 0.000000 0.000001 -77.891102 10.884540 45.418289 119.203453 -22.785707 1.762879 41.505431 16.012364 -7.934484 3.571118 0.376996 -1.416995 -0.000000 0.000000 -0.000001 -94.128019 -0.620112 -11.144078 133.957836 11.852730 -7.896018 39.596229 -9.098523 16.795625 0.149403 3.883129 2.311378 -0.000000 -0.000000 -0.000001 
-12.864365 76.621361 9.276083 -0.700227 -52.633451 0.385345 13.775495 -0.716714 1.194510 4.821418 -1.172925 0.595796 8.359947 -1.192849 0.635306 -1.218713 4.322666 -1.971457 -0.567929 24.563807 -0.751162 0.000002 -0.000000 -0.000000 -3.546116 -21.664585 -0.745445 -43.917133 25.330042 -50.561763 -84.439989 2.600167 -94.689003 -40.529069 -4.718739 15.223940 0.699118 9.503371 -2.418115 5.975208 12.647542 1.348340 -23.873536 -17.664259 1.604921 0.000005 0.000001 -0.000002 -7.938255 1.609094 -6.495667 2.210558 4.583623 -51.475208 0.883848 3.096048 -31.858120 -0.000000 -0.000001 -0.000002 1.254231 -0.073722 -17.945781 3.754117 5.463596 -68.965315 5.298519 9.638351 -33.747049 -0.000000 0.000001 0.000002 10.058161 -1.800614 -20.644720 1.774237 4.200488 -45.782150 1.632183 4.057794 -43.809417 0.000004 -0.000000 0.000004 9.479704 -1.289806 -20.785550 0.709470 2.796453 -28.467112 0.714013 2.804771 -28.559767 -0.000003 0.000003 0.000002 -12.916002 17.244438 2.160871 -17.167795 38.258441 61.953033 -96.807850 50.978958 97.521414 1.575139 4.795437 4.606598 13.942499 -4.273665 -5.300348 7.113210 -20.767511 -2.619476 -3.463343 -24.899745 -18.660476 -0.000003 0.000000 0.000003 0.357750 -5.832707 5.175842 0.094398 -0.933612 11.539840 0.777650 -2.578457 33.559943 -0.000000 -0.000001 -0.000001 3.764084 -12.080515 1.143788 5.714279 -4.535868 103.133500 3.160501 -4.410635 71.234980 0.000001 0.000001 -0.000004 -12.155608 -12.623899 9.228374 6.566881 -4.248443 114.232264 3.755143 -4.569193 78.819693 0.000000 -0.000001 -0.000003 -17.635779 -10.496858 3.325477 4.993663 -4.645004 94.147935 3.647331 -4.546590 77.463416 0.000001 -0.000002 -0.000001 -82.375449 12.616215 41.582537 120.325148 -19.977468 6.407378 42.153954 15.697960 -8.766594 3.072451 0.064023 -0.920345 0.000001 0.000000 -0.000001 -90.156414 -7.370306 -7.494919 137.040123 7.180936 -13.455355 30.741473 -10.908172 20.558955 0.956685 3.469261 1.602927 0.000001 0.000000 -0.000002 
-13.030077 77.046272 8.932262 -1.428228 -52.607514 0.348522 12.415070 -0.028761 1.140547 4.803509 -1.129521 0.588252 8.342110 -1.150874 0.622198 -1.506385 4.340860 -1.972490 -1.275421 24.890473 -0.981043 0.000002 -0.000001 -0.000000 -1.999872 -22.578970 -0.391481 -44.104348 23.827164 -51.179881 -84.426179 5.360730 -93.827968 -37.261865 -5.472720 14.271682 0.699117 9.503373 -2.418115 5.975208 12.647541 1.348336 -23.873533 -17.664257 1.604922 0.000002 0.000001 -0.000001 -7.938258 1.609098 -6.495669 2.210554 4.583620 -51.475212 0.883845 3.096045 -31.858116 0.000001 0.000000 -0.000006 1.254230 -0.073723 -17.945779 3.754116 5.463593 -68.965308 5.298515 9.638349 -33.747043 0.000001 0.000000 0.000005 10.058160 -1.800613 -20.644720 1.774239 4.200483 -45.782147 1.632182 4.057792 -43.809417 -0.000001 -0.000001 0.000008 9.479701 -1.289807 -20.785553 0.709473 2.796456 -28.467113 0.714010 2.804770 -28.559762 -0.000000 0.000001 0.000001 -10.323822 16.231171 1.528339 -18.221654 37.654529 61.480493 -96.815363 51.574536 97.081140 0.534069 5.401707 5.834396 13.942498 -4.273663 -5.300348 7.113208 -20.767513 -2.619477 -3.463342 -24.899745 -18.660476 -0.000001 -0.000001 0.000001 0.357752 -5.832705 5.175846 0.094395 -0.933612 11.539840 0.777651 -2.578454 33.559947 -0.000002 -0.000001 -0.000001 3.764084 -12.080515 1.143790 5.714279 -4.535867 103.133500 3.160500 -4.410636 71.234980 0.000000 0.000000 -0.000008 -12.155607 -12.623896 9.228375 6.566881 -4.248441 114.232264 3.755144 -4.569192 78.819693 -0.000001 -0.000001 -0.000005 -17.635776 -10.496856 3.325479 4.993658 -4.645004 94.147942 3.647330 -4.546593 77.463416 -0.000000 -0.000001 0.000004 -85.154837 9.809326 37.166095 117.619833 -16.442647 7.211529 39.136332 10.033094 2.566514 1.257983 -1.065562 0.887205 0.000002 0.000000 -0.000000 -92.950426 -3.878370 -16.172452 134.902151 8.868264 -14.623787 24.650001 -5.981731 14.453300 3.928008 1.888255 -0.906743 0.000003 -0.000000 -0.000001 
